Coordinates
version=1
nRows=32
nColumns=12
inDegrees=yes

Units are S.I. units (second, meters, Newtons, ...)
Angles are in degrees

endheader
time	SC_y	SC_z	SC_x	AC_y	AC_z	AC_x	GH_y	GH_z	GH_yy	EL_x	PS_y
       0.0               -43.5          3.754          44.28          68.52         -12.58         -13.15         -170.4          20.44          65.68          71.22          83.62
   0.04804               -43.5          3.759          44.28          68.52         -12.57         -13.15         -170.4          20.44          65.66          71.22          83.62
   0.09608               -43.5          3.765          44.28          68.52         -12.57         -13.15         -170.4          20.43          65.64          71.21          83.63
    0.1441               -43.5           3.77          44.27          68.51         -12.57         -13.15         -170.3          20.43          65.62          71.21          83.64
    0.1922               -43.5          3.776          44.27          68.51         -12.57         -13.15         -170.3          20.43           65.6           71.2          83.64
    0.2402               -43.5          3.783          44.27          68.51         -12.57         -13.15         -170.3          20.43          65.58           71.2          83.65
    0.2882               -43.5           3.79          44.27          68.51         -12.57         -13.15         -170.3          20.43          65.55          71.19          83.66
    0.3363               -43.5          3.797          44.26           68.5         -12.56         -13.14         -170.3          20.43          65.52          71.19          83.67
    0.3843              -43.51          3.805          44.26           68.5         -12.56         -13.14         -170.2          20.42          65.49          71.18          83.68
    0.4323              -43.51          3.814          44.26           68.5         -12.56         -13.14         -170.2          20.42          65.46          71.18          83.69
    0.4804              -43.51          3.823          44.25          68.49         -12.55         -13.14         -170.2          20.42          65.43          71.17           83.7
    0.5284              -43.51          3.833          44.25          68.49         -12.55         -13.14         -170.2          20.42           65.4          71.16          83.71
    0.5765              -43.51          3.844          44.24          68.49         -12.55         -13.14         -170.1          20.42          65.36          71.16          83.72
    0.6245              -43.51          3.855          44.24          68.48         -12.54         -13.14         -170.1          20.41          65.32          71.15          83.73
    0.6725              -43.51          3.868          44.23          68.48         -12.54         -13.13         -170.1          20.41          65.27          71.14          83.75
    0.7206              -43.51          3.882          44.23          68.47         -12.54         -13.13         -170.0          20.41          65.22          71.13          83.76
    0.7686              -43.51          3.896          44.22          68.47         -12.53         -13.13         -170.0           20.4          65.17          71.12          83.78
    0.8166              -43.52          3.912          44.21          68.46         -12.53         -13.13         -170.0           20.4          65.11          71.11           83.8
    0.8647              -43.52           3.93          44.21          68.45         -12.52         -13.13         -169.9           20.4          65.05          71.09          83.82
    0.9127              -43.52          3.949           44.2          68.45         -12.52         -13.12         -169.9          20.39          64.98          71.08          83.84
    0.9608              -43.52           3.97          44.19          68.44         -12.51         -13.12         -169.8          20.39          64.91          71.06          83.86
     1.009              -43.53          3.993          44.18          68.43          -12.5         -13.12         -169.7          20.38          64.82          71.05          83.89
     1.057              -43.53          4.019          44.17          68.42         -12.49         -13.11         -169.7          20.38          64.73          71.03          83.92
     1.105              -43.53          4.047          44.16          68.41         -12.48         -13.11         -169.6          20.37          64.63          71.01          83.95
     1.153              -43.53          4.079          44.14           68.4         -12.47          -13.1         -169.5          20.36          64.52          70.98          83.99
     1.201              -43.54          4.114          44.13          68.39         -12.46          -13.1         -169.4          20.35          64.39          70.96          84.03
     1.249              -43.54          4.154          44.11          68.37         -12.45         -13.09         -169.3          20.35          64.25          70.93          84.07
     1.297              -43.55          4.198          44.09          68.35         -12.44         -13.09         -169.2          20.34          64.09           70.9          84.12
     1.345              -43.55          4.248          44.07          68.34         -12.42         -13.08         -169.0          20.32          63.91          70.86          84.18
     1.393              -43.56          4.305          44.05          68.31          -12.4         -13.07         -168.9          20.31          63.71          70.82          84.24
     1.441              -43.56           4.37          44.02          68.29         -12.38         -13.06         -168.7           20.3          63.48          70.77          84.32
     1.489              -43.57          4.445          43.99          68.26         -12.36         -13.05         -168.5          20.28          63.21          70.72           84.4
